<mxfile host="app.diagrams.net" modified="2023-03-30T07:28:41.250Z" agent="Mozilla/5.0 (Windows NT 10.0; Win64; x64) AppleWebKit/537.36 (KHTML, like Gecko) Chrome/111.0.0.0 Safari/537.36" etag="sgoMLtiL7JGmUOhKe4zZ" version="21.1.2" type="github">
  <diagram name="第 1 页" id="lgPEatEoebV-sC17qsp6">
    <mxGraphModel dx="1050" dy="549" grid="1" gridSize="10" guides="1" tooltips="1" connect="1" arrows="1" fold="1" page="1" pageScale="1" pageWidth="827" pageHeight="1169" math="0" shadow="0">
      <root>
        <mxCell id="0" />
        <mxCell id="1" parent="0" />
        <mxCell id="OKxLpYvwT3JeqF0enBmn-1" value="" style="rounded=0;whiteSpace=wrap;html=1;" parent="1" vertex="1">
          <mxGeometry x="320" y="110" width="250" height="340" as="geometry" />
        </mxCell>
        <mxCell id="OKxLpYvwT3JeqF0enBmn-2" value="&lt;b&gt;&lt;font style=&quot;font-size: 14px;&quot;&gt;全局变量&lt;br&gt;staic修饰的变量&lt;/font&gt;&lt;/b&gt;" style="rounded=1;whiteSpace=wrap;html=1;" parent="1" vertex="1">
          <mxGeometry x="340" y="360" width="210" height="70" as="geometry" />
        </mxCell>
        <mxCell id="OKxLpYvwT3JeqF0enBmn-3" value="&lt;b&gt;&lt;font style=&quot;font-size: 14px;&quot;&gt;动态开辟的内存&lt;br&gt;malloc&lt;br&gt;calloc&lt;/font&gt;&lt;/b&gt;" style="rounded=1;whiteSpace=wrap;html=1;" parent="1" vertex="1">
          <mxGeometry x="340" y="245" width="210" height="70" as="geometry" />
        </mxCell>
        <mxCell id="OKxLpYvwT3JeqF0enBmn-4" value="&lt;b&gt;&lt;font style=&quot;font-size: 14px;&quot;&gt;局部变量&lt;br&gt;函数形参&lt;/font&gt;&lt;/b&gt;" style="rounded=1;whiteSpace=wrap;html=1;" parent="1" vertex="1">
          <mxGeometry x="340" y="130" width="210" height="70" as="geometry" />
        </mxCell>
        <mxCell id="OKxLpYvwT3JeqF0enBmn-5" value="&lt;b&gt;&lt;font style=&quot;font-size: 14px;&quot;&gt;栈区&lt;/font&gt;&lt;/b&gt;" style="rounded=1;whiteSpace=wrap;html=1;fillColor=#35FF1F;" parent="1" vertex="1">
          <mxGeometry x="580" y="150" width="120" height="60" as="geometry" />
        </mxCell>
        <mxCell id="OKxLpYvwT3JeqF0enBmn-6" value="&lt;b&gt;&lt;font style=&quot;font-size: 14px;&quot;&gt;堆区&lt;/font&gt;&lt;/b&gt;" style="rounded=1;whiteSpace=wrap;html=1;fillColor=#35FF1F;" parent="1" vertex="1">
          <mxGeometry x="580" y="255" width="120" height="60" as="geometry" />
        </mxCell>
        <mxCell id="OKxLpYvwT3JeqF0enBmn-7" value="&lt;b&gt;&lt;font style=&quot;font-size: 14px;&quot;&gt;静态区&lt;/font&gt;&lt;/b&gt;" style="rounded=1;whiteSpace=wrap;html=1;fillColor=#35FF1F;" parent="1" vertex="1">
          <mxGeometry x="580" y="380" width="120" height="60" as="geometry" />
        </mxCell>
      </root>
    </mxGraphModel>
  </diagram>
</mxfile>
